<svg width="311" height="153" viewBox="0 0 311 153" fill="none" xmlns="http://www.w3.org/2000/svg">
<path d="M300.213 4.83882C296.036 -1.61294 286.484 -1.61294 282.307 4.83882C275.521 15.3189 271.919 27.542 271.938 40.0276C271.938 40.6727 271.938 41.3179 271.965 41.9598C272.204 50.081 276.401 55.5218 281.942 58.2887C285.467 60.048 287.765 63.5665 287.698 67.5041L286.385 148.048C286.373 148.694 286.491 149.336 286.73 149.937C286.969 150.537 287.326 151.084 287.779 151.545C288.232 152.006 288.772 152.372 289.368 152.622C289.964 152.871 290.604 153 291.25 153C291.897 152.999 292.538 152.87 293.134 152.619C293.731 152.368 294.272 152.001 294.725 151.539C295.179 151.078 295.536 150.53 295.776 149.929C296.015 149.328 296.133 148.685 296.122 148.038L294.745 67.5573C294.676 63.6064 296.987 60.0779 300.529 58.322C306.096 55.5617 310.313 50.1143 310.549 41.9731C310.569 41.3312 310.579 40.686 310.579 40.0409C310.604 27.5508 307.003 15.3221 300.213 4.83882Z" fill="#C4C6C8"/>
<path d="M299.355 7.30975C298.409 5.84187 297.075 4.66525 295.5 3.91093C300.922 12.9766 303.777 23.3453 303.761 33.9083C303.761 34.4903 303.761 35.069 303.735 35.6476C303.272 51.4146 286.285 56.0006 276.205 49.4092C283.944 62.5389 308.131 59.6755 308.69 40.8157C308.71 40.237 308.716 39.6551 308.716 39.0731C308.734 27.8026 305.482 16.7689 299.355 7.30975Z" fill="#B5B7BA"/>
<path d="M25.0588 4.48625L22.1023 39.4488C22.0624 40.3035 21.1212 40.3035 21.0813 39.4488L19.0859 4.02066C18.9828 2.78684 17.6559 2.7436 17.5096 3.97076L14.5996 39.4488C14.5564 40.3035 13.6185 40.3035 13.5786 39.4488L10.6886 3.97076C10.5423 2.7436 9.21538 2.78684 9.11229 4.02066L7.08363 39.4488C7.04372 40.3035 6.10589 40.3035 6.06265 39.4488L3.12943 4.48625C2.89663 3.26906 1.55973 3.48855 1.55973 4.75229L0 47.3207C0 52.6417 3.21591 56.9651 7.18009 56.9651C7.66642 56.965 8.14788 57.0618 8.59633 57.25C9.04478 57.4382 9.45121 57.714 9.79183 58.0611C10.1325 58.4082 10.4004 58.8198 10.5801 59.2717C10.7598 59.7236 10.8476 60.2069 10.8383 60.6931L9.22202 148.048C9.22202 149.339 9.73498 150.578 10.648 151.491C11.5611 152.404 12.7995 152.917 14.0908 152.917C15.3821 152.917 16.6204 152.404 17.5335 151.491C18.4466 150.578 18.9595 149.339 18.9595 148.048L17.2734 60.6865C17.2637 60.1999 17.3511 59.7164 17.5306 59.264C17.7101 58.8117 17.978 58.3998 18.3187 58.0523C18.6594 57.7048 19.0659 57.4288 19.5146 57.2404C19.9633 57.052 20.445 56.955 20.9316 56.9551H20.9848C24.9523 56.9551 28.1649 52.6317 28.1649 47.3107L26.6285 4.74232C26.6285 3.4952 25.2916 3.26906 25.0588 4.48625Z" fill="#C4C6C8"/>
<path d="M14.031 48.4015C12.019 49.7018 10.5324 51.6939 8.51045 52.9776C7.87691 53.3824 7.20114 53.7169 6.49512 53.9753C6.96494 54.1261 7.45498 54.2046 7.94842 54.2081H20.2167C23.7419 54.2081 26.5986 50.3736 26.5986 45.6478V43.1669C25.8453 43.7887 25.0202 44.3179 24.1409 44.7433C20.8951 46.283 17.044 46.4493 14.031 48.4015Z" fill="#B5B7BA"/>
</svg>
