<svg width="116" height="110" viewBox="0 0 116 110" fill="none" xmlns="http://www.w3.org/2000/svg">
<path d="M96.0019 0C104.845 12.9319 108.599 28.6754 106.541 44.2063C104.483 59.7372 96.7598 73.9601 84.8539 84.143C72.948 94.3259 57.6994 99.7506 42.0373 99.375C26.3753 98.9995 11.4042 92.8502 0 82.1084C5.03271 89.4767 11.561 95.7022 19.1597 100.38C26.7585 105.057 35.2572 108.081 44.1025 109.256C52.9479 110.43 61.9414 109.728 70.4974 107.196C79.0534 104.663 86.9801 100.357 93.7611 94.5574C100.542 88.7577 106.026 81.5947 109.854 73.5349C113.683 65.4751 115.771 56.6992 115.982 47.7787C116.194 38.8583 114.524 29.9933 111.081 21.7612C107.639 13.5291 102.501 6.1144 96.0019 0Z" fill="#E6E6E7"/>
</svg>
