<svg width="29" height="23" viewBox="0 0 29 23" fill="none" xmlns="http://www.w3.org/2000/svg">
<path d="M27.5 12.5459C28.3284 12.5459 29 11.8744 29 11.0459C29 10.2175 28.3284 9.54593 27.5 9.54593V12.5459ZM0.439341 9.98527C-0.146446 10.5711 -0.146446 11.5208 0.439341 12.1066L9.98528 21.6525C10.5711 22.2383 11.5208 22.2383 12.1066 21.6525C12.6924 21.0667 12.6924 20.117 12.1066 19.5312L3.62132 11.0459L12.1066 2.56065C12.6924 1.97486 12.6924 1.02511 12.1066 0.439327C11.5208 -0.14646 10.5711 -0.14646 9.98528 0.439327L0.439341 9.98527ZM27.5 9.54593L1.5 9.54593V12.5459L27.5 12.5459V9.54593Z" fill="#F1F1F2"/>
</svg>
